<mxfile host="app.diagrams.net" modified="2023-04-23T09:40:56.250Z" agent="Mozilla/5.0 (Windows NT 10.0; Win64; x64) AppleWebKit/537.36 (KHTML, like Gecko) Chrome/112.0.0.0 Safari/537.36 Edg/112.0.1722.48" etag="xttQxBskXKfRI1rgFWQD" version="21.1.0" type="github">
  <diagram name="페이지-1" id="RajPJVk3Lz5mTCUQwoGj">
    <mxGraphModel dx="1233" dy="541" grid="1" gridSize="10" guides="1" tooltips="1" connect="1" arrows="1" fold="1" page="1" pageScale="1" pageWidth="827" pageHeight="1169" math="0" shadow="0">
      <root>
        <mxCell id="0" />
        <mxCell id="1" parent="0" />
        <mxCell id="OTe6agVakJ9XL6L-zvKA-1" value="Actor" style="shape=umlActor;verticalLabelPosition=bottom;verticalAlign=top;html=1;outlineConnect=0;" vertex="1" parent="1">
          <mxGeometry x="60" y="450" width="30" height="60" as="geometry" />
        </mxCell>
        <mxCell id="OTe6agVakJ9XL6L-zvKA-2" value="cheers-up" style="shape=umlFrame;whiteSpace=wrap;html=1;pointerEvents=0;" vertex="1" parent="1">
          <mxGeometry x="120" y="320" width="560" height="300" as="geometry" />
        </mxCell>
        <mxCell id="OTe6agVakJ9XL6L-zvKA-9" value="" style="edgeStyle=orthogonalEdgeStyle;rounded=0;orthogonalLoop=1;jettySize=auto;html=1;" edge="1" parent="1" source="OTe6agVakJ9XL6L-zvKA-3" target="OTe6agVakJ9XL6L-zvKA-4">
          <mxGeometry relative="1" as="geometry" />
        </mxCell>
        <mxCell id="OTe6agVakJ9XL6L-zvKA-3" value="로그인" style="ellipse;whiteSpace=wrap;html=1;" vertex="1" parent="1">
          <mxGeometry x="160" y="455" width="120" height="55" as="geometry" />
        </mxCell>
        <mxCell id="OTe6agVakJ9XL6L-zvKA-10" value="" style="edgeStyle=orthogonalEdgeStyle;rounded=0;orthogonalLoop=1;jettySize=auto;html=1;exitX=1;exitY=0.636;exitDx=0;exitDy=0;exitPerimeter=0;" edge="1" parent="1" source="OTe6agVakJ9XL6L-zvKA-4" target="OTe6agVakJ9XL6L-zvKA-6">
          <mxGeometry relative="1" as="geometry">
            <Array as="points">
              <mxPoint x="455" y="490" />
              <mxPoint x="455" y="538" />
            </Array>
          </mxGeometry>
        </mxCell>
        <mxCell id="OTe6agVakJ9XL6L-zvKA-11" style="edgeStyle=orthogonalEdgeStyle;rounded=0;orthogonalLoop=1;jettySize=auto;html=1;" edge="1" parent="1" source="OTe6agVakJ9XL6L-zvKA-4" target="OTe6agVakJ9XL6L-zvKA-5">
          <mxGeometry relative="1" as="geometry" />
        </mxCell>
        <mxCell id="OTe6agVakJ9XL6L-zvKA-4" value="주소검색" style="ellipse;whiteSpace=wrap;html=1;" vertex="1" parent="1">
          <mxGeometry x="310" y="455" width="120" height="55" as="geometry" />
        </mxCell>
        <mxCell id="OTe6agVakJ9XL6L-zvKA-5" value="길찾기" style="ellipse;whiteSpace=wrap;html=1;" vertex="1" parent="1">
          <mxGeometry x="480" y="400" width="120" height="55" as="geometry" />
        </mxCell>
        <mxCell id="OTe6agVakJ9XL6L-zvKA-6" value="로드뷰" style="ellipse;whiteSpace=wrap;html=1;" vertex="1" parent="1">
          <mxGeometry x="480" y="510" width="120" height="55" as="geometry" />
        </mxCell>
        <mxCell id="OTe6agVakJ9XL6L-zvKA-7" value="" style="edgeStyle=none;orthogonalLoop=1;jettySize=auto;html=1;rounded=0;" edge="1" parent="1">
          <mxGeometry width="100" relative="1" as="geometry">
            <mxPoint x="90" y="479.5" as="sourcePoint" />
            <mxPoint x="150" y="480" as="targetPoint" />
            <Array as="points">
              <mxPoint x="130" y="479.5" />
            </Array>
          </mxGeometry>
        </mxCell>
      </root>
    </mxGraphModel>
  </diagram>
</mxfile>
